<?xml version="1.0" encoding="UTF-8"?><svg id="Layer_1" xmlns="http://www.w3.org/2000/svg" viewBox="0 0 514.11 590"><path id="Standard" d="M508.22,143.2L262.94,1.57c-3.64-2.1-8.13-2.1-11.77,0L5.88,143.2c-3.64,2.1-5.88,5.98-5.88,10.18v283.24c0,4.2,2.24,8.08,5.88,10.18l245.29,141.62c3.64,2.1,8.13,2.1,11.77,0l245.29-141.62c3.64-2.1,5.88-5.98,5.88-10.18V153.38c0-4.2-2.24-8.08-5.88-10.18ZM267.69,29.25l203.81,117.69-203.81,25.85V29.25ZM484.67,166.79l-88.1,210.83-121.17-184.25,209.27-26.58ZM257.22,204.85l121.53,184.76h-238.59l117.06-184.76ZM246.43,29.25v143.54l-204.16-25.66L246.43,29.25ZM239.06,193.54l-116.54,184.08L30.63,167.3l208.43,26.23ZM21.59,199.98l84.46,193.92-84.46,27.86v-221.78ZM36.23,439.39l80.63-26.46,102.45,132.17-183.08-105.71ZM257.22,559.12l-114.83-148.09h233.96l-119.13,148.09ZM297.08,543.77l105.15-130.84,75.97,26.28-181.12,104.56ZM492.51,421.51l-79.49-27.45,79.49-189.9v217.35Z" fill="#fff" stroke-width="0"/></svg>